<?xml version="1.0" encoding="utf-8"?>
<!-- Generator: Adobe Illustrator 16.0.3, SVG Export Plug-In . SVG Version: 6.00 Build 0)  -->
<!DOCTYPE svg PUBLIC "-//W3C//DTD SVG 1.1//EN" "http://www.w3.org/Graphics/SVG/1.1/DTD/svg11.dtd">
<svg version="1.1" id="Capa_1" xmlns="http://www.w3.org/2000/svg" xmlns:xlink="http://www.w3.org/1999/xlink" x="0px" y="0px"
	 width="231.121px" height="462.464px" viewBox="63.123 11.158 231.121 462.464"
	 enable-background="new 63.123 11.158 231.121 462.464" xml:space="preserve">
<g>
	<path id="01" fill="#FFFFFF" d="M154.618,372.984c-0.42,0.823-0.652,2.151-1.29,2.39c-4.946,1.854-4.526,5.557-3.774,9.631
		c0.346,1.875-0.146,4.125-2.46,4.249c-2.533,0.137-3.097-1.988-3.075-4.175c0.013-1.461-0.03-2.927,0.009-4.389
		c0.064-2.504-0.042-4.495-3.642-3.896c-2.971,0.495-5.341-2.306-6.736-3.854c-3.289-3.649-7.02-7.008-8.223-12.723
		c-0.819-3.895-0.291-7.733-1.239-11.477c-0.191-0.756-0.271-1.629-0.093-2.375c0.764-3.156,0.941-6.264,0.017-9.443
		c-0.321-1.1,3.485-12.933,4.136-13.865c0.47-0.675,1.459-1.201,0.31-2.212c-0.933-0.821-1.023-2.269-0.003-2.754
		c2.683-1.277,2.948-5.055,6.98-5.437c2.243-0.213,4.277-3.41,7.289-1.245c0.905-1.9,2.434-3.035,4.422-3.604
		c0.769,0.064,1.54,0.131,2.311,0.196c1.79,2.639,3.938,4.718,7.401,4.745c0.659,0.861,0.692,2.568,2.341,2.14
		c1.936-0.506,3.232,0.645,4.732,1.396c4.006,2.011,8.71,1.839,12.697,3.979c0.127,0.067,0.691-0.683,1.053-1.052
		c6.814,0.275,13.623,0.458,20.385-0.764c6.803-1.226,13.76-1.73,19.762-5.853c3.127-2.148,4.482-5.804,7.529-7.918
		c3.322-0.029,5.258,1.662,4.553,4.906c-0.502,2.306,2.041,3.059,1.701,4.962c-0.697,3.89,0.623,8.667-0.504,11.447
		c-1.791,4.418,2.375,8.782-1.236,12.749c-0.684,0.755,1.523,3.741,0.926,5.869c-0.939,3.329-1.199,6.602,0.016,9.907
		c0.084,0.235,0.102,0.575-0.006,0.786c-1.484,2.923-0.914,7.121-2.105,8.976c-2.098,3.266-3.428,6.43-4.229,10.063
		c-0.221,0.999-1.168,1.344-2.133,1.552c-1.504,0.327-2.695,0.835-2.533,2.843c0.107,1.309-1.094,2.609-2.139,2.489
		c-3.459-0.406-4.586,1.979-6.162,4.204c-1.008,1.42-2.326,3.086-4.641,1.781c-0.969-0.546-1.283,0.132-1.578,1.039
		c-0.225,0.688-0.822,1.367-1.432,1.799c-2.209,1.571-5.307-0.766-6.313-0.051c-2.313,1.641-3.898,1.887-5.873,0.167
		c-1.152-1.004-2.063-1.455-3.236-0.037c-0.361,0.437-1.256,0.813-1.764,0.679c-4.961-1.313-4.932,1.374-5.355,5.272
		c-0.377,3.445-1.835,6.774-1.492,10.454c0.127,1.391-0.129,2.749,0.389,4.198c0.75,2.1-0.51,3.594-2.479,3.983
		c-2.107,0.417-5.138,0.343-4.569-2.598c0.915-4.716-1.781-8.55-2.167-12.948c-0.425-4.852-0.734-9.682-0.787-14.544
		c3.348-2.492,7.453-3.939,10.018-7.537c0.678-0.951,1.936-0.348,2.975-0.035c6.871,2.059,13.557,1.766,19.951-1.718
		c3.225-1.759,5.984-5.053,5.797-7.987c-0.254-3.935,1.912-4.717,4.184-5.842c1.484-0.736,1.996-1.706,1.877-3.099
		c-0.313-3.622,0.838-7.083,1.041-10.642c1.875-3.202,3.113-6.79,2.592-10.338c-0.434-2.937-0.135-5.563,0.918-8.08
		c0.896-2.141,1.266-4.144,0.654-6.986c-1.172,2.331-3.01,2.645-4.707,3.452c-2.059,0.982-5.607,0.121-6.283,3.591
		c-3.285-0.646-5.172,2.264-7.844,3.078c-5.078,1.542-10.947-0.703-15.57,3.188c-3.309-2.11-6.496,0.46-9.758,0.251
		c-0.335-0.063-0.67-0.128-1.005-0.192c-2.638-0.769-5.275-1.536-7.912-2.305c-0.695-1.933-2.059-0.746-3.184-0.686
		c-2.879-0.037-4.947-2.82-7.973-2.358c-0.57-0.012-1.141-0.019-1.711-0.027c-1.514-0.509-1.871-3.46-4.1-2.213
		c-1.739,0.973-3.042-0.122-4.536-0.344c-0.599-1.03-1.751-2.75-2.441-2.086c-1.889,1.818-4.352,4.113-4.558,6.402
		c-0.608,6.749,0.925,13.405,2.916,19.895c0.205,1.578-0.464,3.139,1.361,4.56c3.466,2.697,8.151,4.569,8.41,10.036
		c0.017,0.335,0.3,0.881,0.556,0.949C155.031,368.33,154.412,370.852,154.618,372.984z"/>
	<path id="02" fill="#B5CEEA" d="M170.466,228.92c0.198,3.295,0.561,6.591,0.548,9.885c-0.014,3.526-1.361,5.701-5.47,6.35
		c-8.949,1.414-17.796,3.472-26.692,5.235c-5.508,1.089-9.634-0.643-12.271-5.531c-4.239-7.855-6.851-16.381-8.617-25.037
		c-1.112-5.454,1.197-10.981,2.347-16.362c1.525-7.136,2.093-14.666,6.575-20.913c6.212-8.66,11.87-17.753,19.195-25.557
		c3.486-3.715,15.854-3.57,19.522-0.199c1.136,1.045,0.675,2.185,0.757,3.296c0.464,6.37-1.564,12.666-0.566,19.057
		c1.09,6.977,1.895,7.652,8.946,7.373c1.178,0.022,2.354,0.044,3.534,0.065c-1.03,3.099-0.192,6.356-0.804,9.491
		c-2.119,0.007-4.26,0.201-6.352-0.028c-2.76-0.305-3.504,0.9-3.158,3.365c0.11,0.78,0.049,1.585,0.063,2.38
		c-2.373,3.352-4.635,6.67-4.89,11.053C162.743,219.577,166.265,224.366,170.466,228.92z"/>
	<path id="03" fill="#F6AE8A" d="M149.557,308.004c-0.77-0.065-1.541-0.132-2.311-0.196c-2.707,0.048-5.415,0.132-8.122,0.137
		c-7.339,0.021-9.04-1.073-11.061-8.097c-2.856-9.929-2.073-19.884,0.712-29.679c1.975-6.948,7.25-10.659,13.852-12.673
		c13.148-4.011,26.654-3.499,40.148-3.042c2.844,0.759,5.695,0.662,8.549,0.074c6.377,1.798,13.08,1.284,19.52,2.753
		c5.822,1.329,6.484,2.608,3.635,8.083c-1.701,4.097-4.33,7.588-7.219,10.884c-5.787,6.606-13.117,10.959-21.135,14.279
		c-5.977,1.472-11.781,3.308-16.365,7.728C162.952,301.35,155.971,304.088,149.557,308.004z"/>
	<path id="04" fill="#B5CEEA" d="M188.234,180.872c-0.313-6.452,0.725-12.912-0.193-19.378
		c-0.158-1.107,0.654-2.617,1.469-3.551c3.852-4.417,16.855-4.761,21.049-0.635c6.293,6.19,10.531,13.822,14.977,21.326
		c7.451,12.575,11.992,26.216,14.006,40.554c1.365,9.731,0.449,19.587-2.238,29.145c-0.922,3.282-4.592,5.251-9.635,5.328
		c-6.379,0.101-12.527-1.672-18.779-2.582c-6.529-0.948-13.059-1.723-19.635-2.133c-4.934-2.08-4.582-6.376-4.43-10.587
		c2.881,1.572,5.725,3.223,8.654,4.697c2.846,1.429,5.793,2.949,9.066,1.436c3.994-1.846,6.385-6.29,7.133-9.399
		c1.93-8.025,1.129-16.535-0.068-24.809c-0.877-6.091-3.867-11.108-9.396-15.685c2.092,0,3.117-0.117,4.107,0.02
		c4.783,0.661,3.818-3.51,4.123-5.645c0.418-2.907-2.461-1.055-3.801-1.532c-1.799-0.637-4.252,1.25-5.525-1.6
		C196.977,181.045,193.047,179.937,188.234,180.872z"/>
	<path id="05" fill="#FFFFFF" d="M145.731,327.795c1.494,0.223,2.796,1.318,4.537,0.345c2.229-1.248,2.585,1.706,4.1,2.21
		c0.311,3.349-1.151,6.965,1.711,9.96c0-3.313,0-6.62,0-9.93c3.026-0.462,5.093,2.322,7.973,2.355
		c0.101,6.166,0.644,12.396-3.157,17.95c5.882,0.993,7.573,3.068,7.146,8.465c-0.04,0.502-0.448,1.174,0.142,1.381
		c1.402,0.49,2.958,0.565,4.238-0.195c1.969-1.171,3.101-3.237,4.098-5.164c0.306-0.59-1.54-1.043-2.627-1.118
		c-1.582-0.112-2.068-1.531-2.802-2.587c-3.806-5.471-4.683-11.579-3.854-18.044c2.637,0.767,5.274,1.536,7.911,2.304
		c-0.214,3.652-0.832,7.385,2.323,10.37c-0.695-3.372-1.869-6.679-1.316-10.176c3.26,0.209,6.449-2.362,9.758-0.252
		c4.621-3.892,10.494-1.644,15.57-3.188c2.674-0.814,4.559-3.723,7.844-3.076c1.055,0.758,2.162,1.302,2.963,2.512
		c3.217,4.851,3.977,10.227,3.861,15.85c-0.203,3.558-1.354,7.02-1.041,10.642c0.121,1.391-0.393,2.36-1.875,3.098
		c-2.271,1.126-4.438,1.908-4.184,5.839c0.189,2.938-2.57,6.231-5.795,7.989c-6.396,3.485-13.084,3.778-19.953,1.72
		c-1.041-0.313-2.297-0.916-2.975,0.035c-2.566,3.596-6.67,5.047-10.018,7.536c-5.796,0.917-9.075-2.194-12.042-6.719
		c-1.064-1.621-2.09-3.548-3.654-4.921c-0.203-2.135,0.416-4.657-2.641-5.436c-0.256-0.067-0.54-0.614-0.556-0.948
		c-0.26-5.469-4.943-7.339-8.41-10.038c-1.825-1.419-1.155-2.98-1.359-4.56c2.611-0.574,3.731-3.322,6.148-4.213
		c0.953-0.35,0.935-0.996,0.395-1.862C144.658,340.269,145.7,333.959,145.731,327.795z M179.652,367.952
		c3.066-2.602,5.449-6.052,9.58-7.418c1.193-0.394,1.549-2.042,0.59-3.396c-0.566-0.792-1.182-0.532-1.6,0.035
		c-2.084,2.838-5.23,4.254-8.025,6.153C178.395,364.552,177.291,366.06,179.652,367.952z M185.313,347.489
		c0.262,0.195,0.521,0.392,0.781,0.587c0.959-1.682,5.133,0.15,3.881-2.618c-1.313-2.894-2.568-6.075-4.662-9.57
		C185.313,340.34,185.313,343.915,185.313,347.489z M205.764,355.494c1.787-4.264,1.209-8.261,1.219-12.186
		c0.012-2.849-1.229-3.546-4.168-2.96C207.961,344.38,204.23,350.265,205.764,355.494z M196.107,368.69
		c2.473-0.541,3.441-2.162,4.584-3.553c0.701-0.856,0.656-1.674-0.313-2.31c-1.629-1.075-1.193,0.776-1.535,1.24
		C197.873,365.389,197.146,366.888,196.107,368.69z"/>
	<path id="06" fill="#C71436" d="M188.234,180.872c4.813-0.935,8.738,0.174,10.883,4.97c1.273,2.851,3.725,0.962,5.525,1.6
		c1.342,0.477,4.219-1.374,3.801,1.533c-0.307,2.134,0.66,6.305-4.123,5.644c-0.99-0.137-2.016-0.019-4.107-0.019
		c5.531,4.575,8.52,9.592,9.398,15.683c1.193,8.275,1.996,16.786,0.066,24.811c-0.746,3.108-3.139,7.553-7.135,9.399
		c-3.273,1.511-6.221-0.008-9.064-1.436c-2.932-1.475-5.773-3.125-8.656-4.698c-2.955-1.804-5.907-3.608-8.86-5.411
		c-2.139-0.924-2.897-3.731-5.497-4.027c-4.201-4.555-7.723-9.346-7.333-16.078c0.255-4.382,2.517-7.699,4.891-11.053
		c1.902-1.089,3.92-2.02,5.666-3.317c1.214-0.902,3.381-0.288,3.779-2.4c0.614-3.134-0.224-6.392,0.804-9.49
		c0.805-1.829,1.582-3.674,3.434-4.743C183.641,179.897,185.982,180.685,188.234,180.872z"/>
	<path id="07" fill="#F5DA81" d="M140,300.004c6.414-3.916,13.395-6.654,20.203-9.75c3.691,0.561,7.392,1.054,11.066,1.703
		c2.902,0.512,5.395-1.338,5.424-4.269c0.018-1.719-0.08-3.441-0.123-5.162c8.018-3.32,15.35-7.673,21.135-14.279
		c2.889-3.296,5.518-6.789,7.219-10.886c5.197,0.892,10.172,2.5,12.541,7.63c1.629,3.528,1.938,7.553,2.363,11.474
		c0.783,7.177-1.732,13.648-3.928,20.213c-3.049,2.115-4.4,5.771-7.529,7.918c-6.002,4.123-12.959,4.627-19.76,5.854
		c-6.766,1.223-13.572,1.038-20.389,0.765c-5.042-2.81-9.09-7.141-14.449-9.467c-1.772-0.768-4.051-3.132-4.275,1.375
		c-0.03,0.578-1.366,1.088-2.097,1.628C153.497,312.722,151.348,310.643,149.557,308.004z"/>
	<path id="08" fill="#FFFFFF" d="M110.809,245.709c1.933,7.622,4.172,15.178,5.708,22.878c1.447,7.25,1.807,14.722,3.324,21.955
		c0.839,3.998-0.938,6.956-2.155,10.207c-6.083,16.282-10.865,32.902-14.569,49.913c-2.345,10.77-2.852,21.809-5.87,32.808
		c-1.479-9.349-1.535-18.454-1.528-27.573c0.008-9.32,1.035-18.56,1.889-27.818c0.841-9.117,1.124-18.29,2.606-27.341
		c1.503-9.166,3.101-18.318,4.733-27.464c1.63-9.133,3.355-18.251,5.038-27.379C110.26,245.833,110.535,245.771,110.809,245.709z"/>
	<path id="09" fill="#FFFFFF" d="M181.705,181.84c-1.85,1.07-2.627,2.915-3.432,4.743c-1.18-0.021-2.355-0.043-3.533-0.065
		c0.192-19.531-0.217-39.065,0.526-58.591c0.354-9.289-0.17-18.678,1.021-27.85c1.167-8.998,3.434-18.131,13.371-22.208
		c4.785-1.963,9.865-1.887,14.803-1.441c5.213,0.471,10.469,1.226,15.473,2.983c0.947,0.333,2.35,0.616,2.172,1.907
		c-0.16,1.182-1.543,1.177-2.531,1.378c-7.973,1.615-15.768,4.048-24.084,3.935c-3.674-0.051-8.146,4.932-8.971,8.558
		c-0.4,1.772,0.238,2.237,1.855,1.656c0.246-0.087,0.48-0.24,0.678-0.413c6.906-6.022,14.74-3.847,22.514-2.661
		c1.803,0.276,3.748,0.826,5.385-1.158c1.262-1.53,3.166-1.021,4.557,0.211c1.941,1.714,2.17,7.264,1.174,9.79
		c-1.059,2.677-2.936,2.393-4.854,1.969c-1.771-0.392-3.139-1.202-2.031-3.625c0.619-1.35-0.844-1.955-1.969-2.457
		c-11.26-5.021-22.072-0.637-28.781,8.888c-4.816,6.837-3.305,14.533-3.84,21.912C179.943,146.811,182.193,164.317,181.705,181.84z"
		/>
	<path id="10" fill="#FFFFFF" d="M245.785,303.067c3.23,8.403,4.82,16.982,6.814,25.443c2.158,9.14,4.266,18.296,6.162,27.49
		c1.795,8.688,3.277,17.441,4.93,26.159c0.533,2.829-0.9,5.004-2.496,8.313c-0.643-2.489-1.195-4.042-1.432-5.641
		c-2.828-19.015-7.664-37.626-11.484-56.44c-1.277-6.301-4.051-12.28-3.842-18.927C244.506,307.323,244.707,305.3,245.785,303.067z"
		/>
	<path id="11" fill="#FFFFFF" d="M175.963,232.948c2.955,1.804,5.906,3.608,8.859,5.411c-0.15,4.21-0.506,8.505,4.432,10.586
		c-0.043,2.131,1.736,3.588,2.07,5.582c-2.854,0.588-5.705,0.685-8.547-0.075c-1.967-5.797-5.256-11.114-6.306-17.24
		C176.229,235.802,176.129,234.37,175.963,232.948z"/>
	<path id="12" fill="#42ABE2" d="M145.731,327.795c-0.032,6.163-1.074,12.473,2.46,18.136c0.542,0.867,0.559,1.515-0.395,1.862
		c-2.418,0.89-3.538,3.638-6.148,4.214c-1.992-6.489-3.524-13.146-2.917-19.896c0.207-2.288,2.669-4.584,4.557-6.4
		C143.98,325.048,145.132,326.767,145.731,327.795z"/>
	<path id="13" fill="#42ABE2" d="M167.237,333.424c-0.829,6.465,0.047,12.573,3.854,18.044c0.734,1.057,1.219,2.477,2.802,2.589
		c1.088,0.074,2.931,0.527,2.627,1.115c-0.997,1.928-2.129,3.995-4.098,5.166c-1.281,0.761-2.836,0.686-4.238,0.195
		c-0.59-0.205-0.182-0.88-0.142-1.381c0.426-5.397-1.264-7.472-7.146-8.466c3.801-5.553,3.257-11.784,3.157-17.947
		C165.176,332.678,166.542,331.491,167.237,333.424z"/>
	<path id="14" fill="#42ABE2" d="M216.152,347.767c0.113-5.622-0.646-10.999-3.863-15.85c-0.801-1.209-1.908-1.754-2.963-2.511
		c0.674-3.47,4.225-2.609,6.283-3.591c1.697-0.808,3.535-1.121,4.707-3.452c0.609,2.841,0.242,4.846-0.654,6.986
		c-1.055,2.517-1.352,5.142-0.918,8.079C219.266,340.976,218.025,344.565,216.152,347.767z"/>
	<path id="15" fill="#42ABE2" d="M156.958,312.749c0.732-0.541,2.069-1.051,2.098-1.627c0.224-4.508,2.502-2.143,4.275-1.375
		c5.358,2.325,9.406,6.657,14.45,9.465c-0.36,0.369-0.928,1.119-1.054,1.052c-3.984-2.141-8.69-1.969-12.696-3.979
		c-1.499-0.753-2.796-1.902-4.731-1.396C157.65,315.319,157.617,313.61,156.958,312.749z"/>
	<path id="16" fill="#42ABE2" d="M176.154,335.923c-0.553,3.501,0.621,6.804,1.316,10.175
		c-3.155-2.982-2.537-6.717-2.324-10.368C175.484,335.794,175.818,335.859,176.154,335.923z"/>
	<path id="17" fill="#42ABE2" d="M179.652,367.952c-2.361-1.893-1.258-3.4,0.545-4.625c2.793-1.899,5.939-3.315,8.023-6.153
		c0.418-0.567,1.035-0.827,1.6-0.035c0.959,1.354,0.605,3.002-0.59,3.397C185.102,361.9,182.719,365.351,179.652,367.952z"/>
	<path id="18" fill="#42ABE2" d="M185.313,347.489c0-3.575,0-7.149,0-11.602c2.094,3.495,3.35,6.677,4.662,9.57
		c1.252,2.769-2.922,0.937-3.881,2.618C185.834,347.882,185.574,347.686,185.313,347.489z"/>
	<path id="19" fill="#42ABE2" d="M205.764,355.494c-1.533-5.229,2.199-11.113-2.951-15.146c2.941-0.586,4.178,0.112,4.17,2.96
		C206.973,347.232,207.551,351.23,205.764,355.494z"/>
	<path id="20" fill="#42ABE2" d="M196.107,368.69c1.039-1.804,1.766-3.302,2.734-4.622c0.344-0.464-0.094-2.315,1.537-1.24
		c0.969,0.637,1.014,1.453,0.313,2.31C199.549,366.531,198.58,368.149,196.107,368.69z"/>
        <path id="21" fill="#42ABE2" d="M71.134,422.258c0.222-9.007,0.788-16.552,2.606-23.898c0.806-3.253-0.889-5.723-1.73-8.383
		c-1.6-5.061,0.685-9.867,0.285-14.809c-1.47-18.144-2.905-36.289-4.266-54.441c-1.174-15.663-0.853-31.293,0.696-46.942
		c1.698-17.168,2.922-34.387,4.225-51.594c0.812-10.721,1.609-21.44,2.134-32.19c0.639-13.062,6.466-23.299,18.406-29.917
		c12.826-7.108,25.476-14.503,38.653-20.991c5.195-2.558,10.521-4.91,15.574-7.784c1.04-0.591,1.591-1.176,1.437-2.468
		c-1.122-9.392,0.178-18.876-1.067-28.277c-0.231-1.752-0.686-2.744-2.301-3.694c-16.041-9.458-23.214-24.02-22.273-42.152
		c0.4-7.73,3.529-14.984,8.62-21.602c8.979-11.668,21.274-15.384,34.79-17.539c9.388-1.498,18.596-0.537,27.413,2.274
		c13.465,4.294,22.816,13.361,27.596,26.882c1.357,3.843,3.129,7.498,4.072,11.542c0.637,2.728-0.389,5.119-0.201,7.714
		c0.385,5.256,3.955,9.175,5.25,14.036c0.709,2.663,0.078,4.516-2.086,5.493c-2.039,0.921-1.645,1.899-1.498,3.665
		c0.207,2.517,3.063,5.57-0.848,7.689c-0.182,0.099-0.381,0.586-0.334,0.633c3.836,3.554-0.332,7.047-0.121,10.596
		c0.285,4.744-3.004,7.282-7.566,6.247c-4.646-1.056-9.336-0.96-14.027-0.604c-2.129,0.161-3.75,0.994-3.82,3.61
		c-0.061,2.24-0.322,4.5-0.748,6.701c-0.818,4.232,1.592,6.372,4.918,7.9c16.975,7.79,34.105,15.203,51.666,21.596
		c8.361,3.042,13.967,9.244,16.299,17.561c7.068,25.215,7.527,51.08,6.664,77.037c-0.326,9.814,0.512,19.542,2.98,29.114
		c1.916,7.428,3.871,14.875,5.211,22.419c2.734,15.364,2.881,30.815,1.256,46.362c-1.449,13.842-4.463,27.542-4.387,41.51
		c0.045,8.212,0.797,16.436,1.566,24.623c0.594,6.325-1.086,12.021-3.695,17.605c-3.969,8.502-8.426,16.714-13.271,24.771
		c-4.748,7.902-11.912,11.355-20.234,13.455c-0.695,0.177-1.68-0.382-1.979,0.743c-1.705,6.378-7.344,6.015-11.916,6.21
		c-13.264,0.566-26.559,0.561-39.838,0.659c-6.625,0.05-12.699-2.142-18.334-5.439c-1.474-0.862-2.166-1.152-3.631,0.111
		c-3.334,2.877-7.746,3.4-11.847,3.888c-11.97,1.418-24.023,1.834-36.049,0.817c-4.953-0.419-9.838-1.66-14.746-2.576
		c-4.704-0.875-7.292-4.073-8.567-8.375c-0.669-2.259-1.583-3.434-4.144-3.926c-10.268-1.979-16.894-8.556-20.975-17.856
		C74.222,434.044,69.476,428.372,71.134,422.258z M175.963,232.948c0.166,1.422,0.266,2.855,0.509,4.263
		c1.048,6.126,4.337,11.444,6.304,17.24c-13.494-0.456-27-0.967-40.148,3.044c-6.603,2.015-11.877,5.725-13.852,12.671
		c-2.785,9.797-3.568,19.752-0.712,29.681c2.021,7.023,3.723,8.117,11.061,8.097c2.708-0.006,5.416-0.089,8.125-0.139
		c-1.99,0.57-3.52,1.703-4.424,3.604c-3.012-2.163-5.046,1.034-7.289,1.247c-4.031,0.38-4.297,4.159-6.979,5.435
		c-1.02,0.485-0.931,1.935,0.002,2.756c1.15,1.011,0.161,1.537-0.31,2.211c-0.651,0.934-4.456,12.767-4.136,13.866
		c0.925,3.181,0.747,6.286-0.017,9.442c-0.179,0.747-0.099,1.621,0.093,2.376c0.947,3.741,0.419,7.583,1.239,11.477
		c1.204,5.716,4.934,9.073,8.223,12.722c1.395,1.55,3.765,4.35,6.736,3.855c3.602-0.601,3.706,1.391,3.642,3.895
		c-0.038,1.462,0.005,2.926-0.009,4.39c-0.021,2.187,0.543,4.311,3.075,4.175c2.316-0.126,2.806-2.376,2.46-4.25
		c-0.751-4.073-1.172-7.778,3.774-9.63c0.638-0.238,0.869-1.566,1.284-2.386c1.566,1.373,2.591,3.298,3.656,4.92
		c2.967,4.524,6.246,7.636,12.041,6.717c0.053,4.862,0.361,9.693,0.787,14.547c0.387,4.396,3.081,8.231,2.167,12.947
		c-0.57,2.939,2.462,3.014,4.569,2.598c1.969-0.388,3.229-1.884,2.479-3.984c-0.518-1.45-0.262-2.808-0.391-4.197
		c-0.341-3.68,1.117-7.008,1.494-10.452c0.424-3.9,0.395-6.584,5.355-5.274c0.508,0.135,1.402-0.244,1.764-0.679
		c1.174-1.418,2.082-0.968,3.236,0.037c1.975,1.719,3.561,1.474,5.873-0.167c1.006-0.715,4.102,1.624,6.314,0.052
		c0.607-0.434,1.205-1.11,1.43-1.801c0.295-0.905,0.609-1.584,1.578-1.039c2.314,1.305,3.633-0.358,4.643-1.781
		c1.576-2.225,2.701-4.607,6.16-4.204c1.045,0.12,2.244-1.18,2.139-2.488c-0.162-2.008,1.029-2.513,2.533-2.841
		c0.965-0.211,1.912-0.555,2.133-1.554c0.801-3.635,2.131-6.798,4.229-10.063c1.191-1.854,0.621-6.054,2.105-8.975
		c0.107-0.213,0.09-0.553,0.006-0.787c-1.215-3.307-0.955-6.578-0.016-9.908c0.598-2.125-1.609-5.114-0.926-5.866
		c3.611-3.969-0.555-8.332,1.236-12.751c1.127-2.78-0.193-7.558,0.504-11.447c0.34-1.904-2.203-2.657-1.701-4.963
		c0.705-3.244-1.23-4.934-4.551-4.906c2.193-6.563,4.709-13.035,3.926-20.213c-0.426-3.923-0.734-7.945-2.363-11.474
		c-2.369-5.133-7.346-6.74-12.541-7.63c2.85-5.473,2.184-6.753-3.639-8.083c-6.439-1.469-13.141-0.955-19.518-2.755
		c-0.336-1.991-2.111-3.448-2.072-5.577c6.578,0.408,13.107,1.185,19.635,2.132c6.252,0.911,12.396,2.682,18.779,2.584
		c5.045-0.08,8.713-2.048,9.637-5.331c2.686-9.556,3.604-19.415,2.236-29.144c-2.014-14.339-6.555-27.98-14.006-40.555
		c-4.447-7.504-8.682-15.135-14.977-21.326c-4.191-4.125-17.195-3.783-21.047,0.636c-0.813,0.932-1.627,2.444-1.469,3.551
		c0.918,6.467-0.121,12.927,0.191,19.379c-2.25-0.187-4.592-0.975-6.527,0.968c0.486-17.523-1.764-35.029-0.498-52.541
		c0.535-7.379-0.975-15.075,3.838-21.911c6.711-9.525,17.523-13.91,28.781-8.889c1.127,0.502,2.59,1.107,1.971,2.457
		c-1.107,2.422,0.26,3.233,2.033,3.625c1.914,0.424,3.793,0.708,4.852-1.97c0.996-2.524,0.766-8.074-1.174-9.789
		c-1.393-1.231-3.297-1.741-4.557-0.211c-1.637,1.984-3.584,1.434-5.385,1.159c-7.773-1.187-15.607-3.363-22.514,2.66
		c-0.199,0.173-0.434,0.326-0.678,0.413c-1.617,0.583-2.258,0.118-1.854-1.655c0.822-3.625,5.295-8.607,8.969-8.557
		c8.314,0.113,16.111-2.32,24.082-3.936c0.99-0.201,2.373-0.195,2.533-1.377c0.178-1.291-1.227-1.574-2.172-1.908
		c-5.006-1.757-10.26-2.511-15.473-2.982c-4.938-0.447-10.02-0.522-14.801,1.44c-9.939,4.078-12.205,13.211-13.373,22.208
		c-1.191,9.172-0.665,18.561-1.021,27.849c-0.744,19.526-0.334,39.06-0.527,58.591c-7.051,0.279-7.855-0.397-8.945-7.373
		c-0.998-6.393,1.03-12.689,0.565-19.058c-0.081-1.112,0.38-2.252-0.756-3.297c-3.669-3.369-16.037-3.515-19.523,0.2
		c-7.326,7.805-12.981,16.897-19.195,25.557c-4.48,6.247-5.049,13.776-6.574,20.912c-1.149,5.381-3.46,10.91-2.347,16.362
		c1.765,8.656,4.377,17.183,8.616,25.038c2.638,4.887,6.763,6.62,12.271,5.53c8.896-1.762,17.742-3.82,26.691-5.235
		c4.11-0.646,5.457-2.823,5.471-6.35c0.013-3.294-0.352-6.59-0.549-9.884C173.065,229.217,173.823,232.025,175.963,232.948z
		 M110.809,245.709c-0.274,0.062-0.549,0.124-0.825,0.186c-1.683,9.126-3.407,18.243-5.038,27.379
		c-1.632,9.144-3.231,18.297-4.733,27.462c-1.482,9.051-1.764,18.227-2.606,27.341c-0.854,9.26-1.882,18.499-1.889,27.818
		c-0.006,9.119,0.05,18.225,1.529,27.575c3.018-11.001,3.524-22.04,5.87-32.81c3.705-17.01,8.487-33.63,14.569-49.912
		c1.215-3.252,2.994-6.208,2.155-10.206c-1.517-7.234-1.876-14.706-3.324-21.957C114.981,260.888,112.742,253.33,110.809,245.709z
		 M245.785,303.067c-1.078,2.233-1.279,4.257-1.348,6.4c-0.209,6.645,2.564,12.624,3.842,18.926
		c3.82,18.814,8.656,37.426,11.484,56.439c0.236,1.6,0.789,3.151,1.432,5.642c1.596-3.311,3.029-5.485,2.496-8.313
		c-1.652-8.719-3.135-17.472-4.93-26.159c-1.896-9.194-4.004-18.351-6.162-27.49C250.605,320.05,249.016,311.47,245.785,303.067z"/>
                <path id="22" fill="#FE2E2E" stroke="black" stroke-width="2" d="M 205, 60m -5, 0a 5,5 0 1,0 20,0a 5,5 0 1,0 -20,0"/>
</g>
</svg>
